<svg viewBox="0 0 48 48" fill="none" xmlns="http://www.w3.org/2000/svg">
  <defs>
    <linearGradient id="ig-s" x1="24" y1="2" x2="24" y2="46" gradientUnits="userSpaceOnUse">
      <stop offset="0%" stop-color="#2563EB"/>
      <stop offset="55%" stop-color="#1E40AF"/>
      <stop offset="100%" stop-color="#1E3A8A"/>
    </linearGradient>
    <radialGradient id="ig-h" cx="35%" cy="25%" r="60%">
      <stop offset="0%" stop-color="#60A5FA" stop-opacity="0.25"/>
      <stop offset="100%" stop-color="#60A5FA" stop-opacity="0"/>
    </radialGradient>
  </defs>

  <!-- Shield body -->
  <path d="M24 2 L6 8 L4.5 28.5 Q4.5 40.5 24 46.5 Q43.5 40.5 43.5 28.5 L42 8 Z"
        fill="url(#ig-s)"/>
  <path d="M24 2 L6 8 L4.5 28.5 Q4.5 40.5 24 46.5 Q43.5 40.5 43.5 28.5 L42 8 Z"
        fill="url(#ig-h)"/>
  <path d="M24 2 L6 8 L4.5 28.5 Q4.5 40.5 24 46.5 Q43.5 40.5 43.5 28.5 L42 8 Z"
        fill="none" stroke="#60A5FA" stroke-width="0.9" stroke-opacity="0.6"/>

  <!-- Network lines -->
  <line x1="24" y1="20.5" x2="24" y2="26.5" stroke="white" stroke-width="1.3" stroke-opacity="0.5"/>
  <line x1="24" y1="26.5" x2="13.5" y2="33.5" stroke="white" stroke-width="1.3" stroke-opacity="0.5"/>
  <line x1="24" y1="26.5" x2="34.5" y2="33.5" stroke="white" stroke-width="1.3" stroke-opacity="0.5"/>

  <!-- AI node -->
  <circle cx="24" cy="13.5" r="5.8" fill="#1E3A8A" stroke="#60A5FA" stroke-width="1.4"/>
  <rect x="20.5" y="11.8" width="7" height="3.2" rx="1.6" fill="#60A5FA"/>
  <circle cx="22.3" cy="13.4" r="0.9" fill="#DBEAFE"/>
  <circle cx="25.7" cy="13.4" r="0.9" fill="#DBEAFE"/>
  <path d="M21.5 16.2 Q24 17.5 26.5 16.2" fill="none" stroke="#60A5FA" stroke-width="0.8" stroke-linecap="round" stroke-opacity="0.7"/>

  <!-- Left person -->
  <circle cx="13.5" cy="34" r="3.8" fill="#1E3A8A" stroke="#93C5FD" stroke-width="1.2"/>
  <circle cx="13.5" cy="32.1" r="1.7" fill="#93C5FD"/>
  <path d="M10.5 35.5 Q13.5 38.2 16.5 35.5" fill="none" stroke="#93C5FD" stroke-width="1.1" stroke-linecap="round"/>

  <!-- Right person -->
  <circle cx="34.5" cy="34" r="3.8" fill="#1E3A8A" stroke="#93C5FD" stroke-width="1.2"/>
  <circle cx="34.5" cy="32.1" r="1.7" fill="#93C5FD"/>
  <path d="M31.5 35.5 Q34.5 38.2 37.5 35.5" fill="none" stroke="#93C5FD" stroke-width="1.1" stroke-linecap="round"/>
</svg>
